<svg width="1032" height="1036" viewBox="0 0 1032 1036" fill="none" xmlns="http://www.w3.org/2000/svg">
<g filter="url(#filter0_di_2_54)">
<circle cx="516" cy="512" r="512" transform="rotate(-180 516 512)" fill="#00E6B8" fill-opacity="0.62" shape-rendering="crispEdges"/>
</g>
<g filter="url(#filter1_di_2_54)">
<circle cx="468" cy="462" r="444" transform="rotate(-180 468 462)" fill="#007B62" fill-opacity="0.72" shape-rendering="crispEdges"/>
</g>
<g filter="url(#filter2_di_2_54)">
<path d="M50 402.5C50 200.64 213.64 37 415.5 37C617.36 37 781 200.64 781 402.5C781 604.36 617.36 768 415.5 768C213.64 768 50 604.36 50 402.5Z" fill="#005E48" fill-opacity="0.69" shape-rendering="crispEdges"/>
</g>
<g filter="url(#filter3_di_2_54)">
<path d="M145.067 557.896C136.704 557.896 129.024 555.933 122.027 552.008C115.029 548.083 109.483 542.664 105.387 535.752C101.291 528.755 99.2425 520.861 99.2425 512.072C99.2425 503.368 101.291 495.56 105.387 488.648C109.483 481.651 115.029 476.189 122.027 472.264C129.024 468.339 136.704 466.376 145.067 466.376C153.515 466.376 161.195 468.339 168.107 472.264C175.104 476.189 180.608 481.651 184.619 488.648C188.715 495.56 190.763 503.368 190.763 512.072C190.763 520.861 188.715 528.755 184.619 535.752C180.608 542.664 175.104 548.083 168.107 552.008C161.109 555.933 153.429 557.896 145.067 557.896ZM145.067 541.896C150.443 541.896 155.179 540.701 159.275 538.312C163.371 535.837 166.571 532.339 168.875 527.816C171.179 523.293 172.331 518.045 172.331 512.072C172.331 506.099 171.179 500.893 168.875 496.456C166.571 491.933 163.371 488.477 159.275 486.088C155.179 483.699 150.443 482.504 145.067 482.504C139.691 482.504 134.912 483.699 130.731 486.088C126.635 488.477 123.435 491.933 121.131 496.456C118.827 500.893 117.675 506.099 117.675 512.072C117.675 518.045 118.827 523.293 121.131 527.816C123.435 532.339 126.635 535.837 130.731 538.312C134.912 540.701 139.691 541.896 145.067 541.896ZM228.415 496.328C230.719 493.085 233.876 490.397 237.887 488.264C241.983 486.045 246.633 484.936 251.839 484.936C257.897 484.936 263.359 486.429 268.223 489.416C273.172 492.403 277.055 496.669 279.871 502.216C282.772 507.677 284.223 514.035 284.223 521.288C284.223 528.541 282.772 534.984 279.871 540.616C277.055 546.163 273.172 550.472 268.223 553.544C263.359 556.616 257.897 558.152 251.839 558.152C246.633 558.152 242.025 557.085 238.015 554.952C234.089 552.819 230.889 550.131 228.415 546.888V590.792H210.495V486.088H228.415V496.328ZM265.919 521.288C265.919 517.021 265.023 513.352 263.231 510.28C261.524 507.123 259.22 504.733 256.319 503.112C253.503 501.491 250.431 500.68 247.103 500.68C243.86 500.68 240.788 501.533 237.887 503.24C235.071 504.861 232.767 507.251 230.975 510.408C229.268 513.565 228.415 517.277 228.415 521.544C228.415 525.811 229.268 529.523 230.975 532.68C232.767 535.837 235.071 538.269 237.887 539.976C240.788 541.597 243.86 542.408 247.103 542.408C250.431 542.408 253.503 541.555 256.319 539.848C259.22 538.141 261.524 535.709 263.231 532.552C265.023 529.395 265.919 525.64 265.919 521.288ZM369.565 520.008C369.565 522.568 369.394 524.872 369.053 526.92H317.213C317.639 532.04 319.431 536.051 322.589 538.952C325.746 541.853 329.629 543.304 334.237 543.304C340.893 543.304 345.629 540.445 348.445 534.728H367.773C365.725 541.555 361.799 547.187 355.997 551.624C350.194 555.976 343.069 558.152 334.621 558.152C327.794 558.152 321.65 556.659 316.189 553.672C310.813 550.6 306.589 546.291 303.517 540.744C300.53 535.197 299.037 528.797 299.037 521.544C299.037 514.205 300.53 507.763 303.517 502.216C306.503 496.669 310.685 492.403 316.061 489.416C321.437 486.429 327.623 484.936 334.621 484.936C341.362 484.936 347.378 486.387 352.669 489.288C358.045 492.189 362.183 496.328 365.085 501.704C368.071 506.995 369.565 513.096 369.565 520.008ZM351.005 514.888C350.919 510.28 349.255 506.611 346.013 503.88C342.77 501.064 338.802 499.656 334.109 499.656C329.671 499.656 325.917 501.021 322.845 503.752C319.858 506.397 318.023 510.109 317.341 514.888H351.005ZM428.341 485.064C436.789 485.064 443.615 487.752 448.821 493.128C454.026 498.419 456.629 505.843 456.629 515.4V557H438.709V517.832C438.709 512.2 437.301 507.891 434.485 504.904C431.669 501.832 427.829 500.296 422.965 500.296C418.015 500.296 414.09 501.832 411.189 504.904C408.373 507.891 406.965 512.2 406.965 517.832V557H389.045V486.088H406.965V494.92C409.354 491.848 412.383 489.459 416.053 487.752C419.807 485.96 423.903 485.064 428.341 485.064ZM577.77 467.656V482.12H553.962V557H536.042V482.12H512.234V467.656H577.77ZM628.732 558.152C621.906 558.152 615.762 556.659 610.3 553.672C604.839 550.6 600.53 546.291 597.372 540.744C594.3 535.197 592.764 528.797 592.764 521.544C592.764 514.291 594.343 507.891 597.5 502.344C600.743 496.797 605.138 492.531 610.684 489.544C616.231 486.472 622.418 484.936 629.244 484.936C636.071 484.936 642.258 486.472 647.804 489.544C653.351 492.531 657.703 496.797 660.86 502.344C664.103 507.891 665.724 514.291 665.724 521.544C665.724 528.797 664.06 535.197 660.732 540.744C657.49 546.291 653.052 550.6 647.42 553.672C641.874 556.659 635.644 558.152 628.732 558.152ZM628.732 542.536C631.975 542.536 635.004 541.768 637.82 540.232C640.722 538.611 643.026 536.221 644.732 533.064C646.439 529.907 647.292 526.067 647.292 521.544C647.292 514.803 645.5 509.64 641.916 506.056C638.418 502.387 634.108 500.552 628.988 500.552C623.868 500.552 619.559 502.387 616.06 506.056C612.647 509.64 610.94 514.803 610.94 521.544C610.94 528.285 612.604 533.491 615.932 537.16C619.346 540.744 623.612 542.536 628.732 542.536ZM739.798 503.752V518.856H685.526V503.752H739.798ZM797.527 467.656C806.913 467.656 815.148 469.491 822.231 473.16C829.399 476.829 834.903 482.077 838.743 488.904C842.668 495.645 844.631 503.496 844.631 512.456C844.631 521.416 842.668 529.267 838.743 536.008C834.903 542.664 829.399 547.827 822.231 551.496C815.148 555.165 806.913 557 797.527 557H766.295V467.656H797.527ZM796.887 541.768C806.273 541.768 813.527 539.208 818.647 534.088C823.767 528.968 826.327 521.757 826.327 512.456C826.327 503.155 823.767 495.901 818.647 490.696C813.527 485.405 806.273 482.76 796.887 482.76H784.215V541.768H796.887ZM895.932 558.152C889.106 558.152 882.962 556.659 877.5 553.672C872.039 550.6 867.73 546.291 864.572 540.744C861.5 535.197 859.964 528.797 859.964 521.544C859.964 514.291 861.543 507.891 864.7 502.344C867.943 496.797 872.338 492.531 877.884 489.544C883.431 486.472 889.618 484.936 896.444 484.936C903.271 484.936 909.458 486.472 915.004 489.544C920.551 492.531 924.903 496.797 928.06 502.344C931.303 507.891 932.924 514.291 932.924 521.544C932.924 528.797 931.26 535.197 927.932 540.744C924.69 546.291 920.252 550.6 914.62 553.672C909.074 556.659 902.844 558.152 895.932 558.152ZM895.932 542.536C899.175 542.536 902.204 541.768 905.02 540.232C907.922 538.611 910.226 536.221 911.932 533.064C913.639 529.907 914.492 526.067 914.492 521.544C914.492 514.803 912.7 509.64 909.116 506.056C905.618 502.387 901.308 500.552 896.188 500.552C891.068 500.552 886.759 502.387 883.26 506.056C879.847 509.64 878.14 514.803 878.14 521.544C878.14 528.285 879.804 533.491 883.132 537.16C886.546 540.744 890.812 542.536 895.932 542.536Z" fill="#F3F3F3"/>
</g>
<defs>
<filter id="filter0_di_2_54" x="0" y="0" width="1032" height="1036" filterUnits="userSpaceOnUse" color-interpolation-filters="sRGB">
<feFlood flood-opacity="0" result="BackgroundImageFix"/>
<feColorMatrix in="SourceAlpha" type="matrix" values="0 0 0 0 0 0 0 0 0 0 0 0 0 0 0 0 0 0 127 0" result="hardAlpha"/>
<feOffset dy="8"/>
<feGaussianBlur stdDeviation="2"/>
<feComposite in2="hardAlpha" operator="out"/>
<feColorMatrix type="matrix" values="0 0 0 0 0 0 0 0 0 0 0 0 0 0 0 0 0 0 0.25 0"/>
<feBlend mode="normal" in2="BackgroundImageFix" result="effect1_dropShadow_2_54"/>
<feBlend mode="normal" in="SourceGraphic" in2="BackgroundImageFix" result="shape"/>
<feColorMatrix in="SourceAlpha" type="matrix" values="0 0 0 0 0 0 0 0 0 0 0 0 0 0 0 0 0 0 127 0" result="hardAlpha"/>
<feOffset dy="8"/>
<feGaussianBlur stdDeviation="2"/>
<feComposite in2="hardAlpha" operator="arithmetic" k2="-1" k3="1"/>
<feColorMatrix type="matrix" values="0 0 0 0 0 0 0 0 0 0 0 0 0 0 0 0 0 0 0.25 0"/>
<feBlend mode="normal" in2="shape" result="effect2_innerShadow_2_54"/>
<feBlend mode="normal" in="effect2_innerShadow_2_54" in2="effect1_dropShadow_2_54" result="effect2_innerShadow_2_54"/>
</filter>
<filter id="filter1_di_2_54" x="20" y="18" width="896" height="904" filterUnits="userSpaceOnUse" color-interpolation-filters="sRGB">
<feFlood flood-opacity="0" result="BackgroundImageFix"/>
<feColorMatrix in="SourceAlpha" type="matrix" values="0 0 0 0 0 0 0 0 0 0 0 0 0 0 0 0 0 0 127 0" result="hardAlpha"/>
<feOffset dy="12"/>
<feGaussianBlur stdDeviation="2"/>
<feComposite in2="hardAlpha" operator="out"/>
<feColorMatrix type="matrix" values="0 0 0 0 0 0 0 0 0 0 0 0 0 0 0 0 0 0 0.25 0"/>
<feBlend mode="normal" in2="BackgroundImageFix" result="effect1_dropShadow_2_54"/>
<feBlend mode="normal" in="SourceGraphic" in2="BackgroundImageFix" result="shape"/>
<feColorMatrix in="SourceAlpha" type="matrix" values="0 0 0 0 0 0 0 0 0 0 0 0 0 0 0 0 0 0 127 0" result="hardAlpha"/>
<feOffset dy="12"/>
<feGaussianBlur stdDeviation="2"/>
<feComposite in2="hardAlpha" operator="arithmetic" k2="-1" k3="1"/>
<feColorMatrix type="matrix" values="0 0 0 0 0 0 0 0 0 0 0 0 0 0 0 0 0 0 0.25 0"/>
<feBlend mode="normal" in2="shape" result="effect2_innerShadow_2_54"/>
<feBlend mode="normal" in="effect2_innerShadow_2_54" in2="effect1_dropShadow_2_54" result="effect2_innerShadow_2_54"/>
</filter>
<filter id="filter2_di_2_54" x="46" y="37" width="739" height="747" filterUnits="userSpaceOnUse" color-interpolation-filters="sRGB">
<feFlood flood-opacity="0" result="BackgroundImageFix"/>
<feColorMatrix in="SourceAlpha" type="matrix" values="0 0 0 0 0 0 0 0 0 0 0 0 0 0 0 0 0 0 127 0" result="hardAlpha"/>
<feOffset dy="12"/>
<feGaussianBlur stdDeviation="2"/>
<feComposite in2="hardAlpha" operator="out"/>
<feColorMatrix type="matrix" values="0 0 0 0 0 0 0 0 0 0 0 0 0 0 0 0 0 0 0.25 0"/>
<feBlend mode="normal" in2="BackgroundImageFix" result="effect1_dropShadow_2_54"/>
<feBlend mode="normal" in="SourceGraphic" in2="BackgroundImageFix" result="shape"/>
<feColorMatrix in="SourceAlpha" type="matrix" values="0 0 0 0 0 0 0 0 0 0 0 0 0 0 0 0 0 0 127 0" result="hardAlpha"/>
<feOffset dy="12"/>
<feGaussianBlur stdDeviation="2"/>
<feComposite in2="hardAlpha" operator="arithmetic" k2="-1" k3="1"/>
<feColorMatrix type="matrix" values="0 0 0 0 0 0 0 0 0 0 0 0 0 0 0 0 0 0 0.25 0"/>
<feBlend mode="normal" in2="shape" result="effect2_innerShadow_2_54"/>
<feBlend mode="normal" in="effect2_innerShadow_2_54" in2="effect1_dropShadow_2_54" result="effect2_innerShadow_2_54"/>
</filter>
<filter id="filter3_di_2_54" x="95.2425" y="466.376" width="841.682" height="132.416" filterUnits="userSpaceOnUse" color-interpolation-filters="sRGB">
<feFlood flood-opacity="0" result="BackgroundImageFix"/>
<feColorMatrix in="SourceAlpha" type="matrix" values="0 0 0 0 0 0 0 0 0 0 0 0 0 0 0 0 0 0 127 0" result="hardAlpha"/>
<feOffset dy="4"/>
<feGaussianBlur stdDeviation="2"/>
<feComposite in2="hardAlpha" operator="out"/>
<feColorMatrix type="matrix" values="0 0 0 0 0 0 0 0 0 0 0 0 0 0 0 0 0 0 0.25 0"/>
<feBlend mode="normal" in2="BackgroundImageFix" result="effect1_dropShadow_2_54"/>
<feBlend mode="normal" in="SourceGraphic" in2="effect1_dropShadow_2_54" result="shape"/>
<feColorMatrix in="SourceAlpha" type="matrix" values="0 0 0 0 0 0 0 0 0 0 0 0 0 0 0 0 0 0 127 0" result="hardAlpha"/>
<feOffset dy="4"/>
<feGaussianBlur stdDeviation="2"/>
<feComposite in2="hardAlpha" operator="arithmetic" k2="-1" k3="1"/>
<feColorMatrix type="matrix" values="0 0 0 0 0 0 0 0 0 0 0 0 0 0 0 0 0 0 0.25 0"/>
<feBlend mode="normal" in2="shape" result="effect2_innerShadow_2_54"/>
</filter>
</defs>
</svg>
